<svg xmlns="http://www.w3.org/2000/svg" version="1.1" xmlns:xlink="http://www.w3.org/1999/xlink" xmlns:svgjs="http://svgjs.dev/svgjs" width="500" height="500"><svg xmlns="http://www.w3.org/2000/svg" xmlns:xlink="http://www.w3.org/1999/xlink" width="500" zoomAndPan="magnify" viewBox="0 0 375 374.999991" height="500" preserveAspectRatio="xMidYMid meet" version="1.0"><defs><clipPath id="SvgjsClipPath1118"><path d="M 37.5 0 L 339 0 L 339 375 L 37.5 375 Z M 37.5 0 " clip-rule="nonzero"></path></clipPath></defs><path fill="#38b6ff" d="M 95.285156 132.695312 L 157.699219 222.347656 L 221.027344 131.378906 L 162.402344 47.558594 Z M 95.285156 132.695312 " fill-opacity="1" fill-rule="evenodd"></path><path fill="#5271ff" d="M 240.984375 160.097656 L 177.65625 251.058594 L 236.28125 334.878906 L 303.394531 249.742188 Z M 240.984375 160.097656 " fill-opacity="1" fill-rule="evenodd"></path><g clip-path="url(#a8e46ad5f4)"><path fill="#212121" d="M 146.535156 218.621094 L 209.859375 127.652344 L 151.238281 43.832031 L 84.121094 128.976562 Z M 229.757812 99.082031 L 275.894531 32.8125 L 183.417969 32.8125 L 229.765625 99.082031 Z M 320.746094 25.765625 L 249.796875 127.683594 L 326.089844 237.265625 L 333.019531 247.222656 L 325.511719 256.753906 L 244.734375 359.214844 L 232.292969 375 L 37.675781 375 L 55.613281 349.234375 L 126.5625 247.316406 L 50.269531 137.734375 L 43.339844 127.777344 L 50.847656 118.246094 L 131.617188 15.785156 L 144.058594 0 L 338.675781 0 L 320.738281 25.765625 Z M 225.113281 331.160156 L 292.230469 246.015625 L 229.816406 156.371094 L 166.492188 247.339844 Z M 146.59375 275.917969 L 100.457031 342.1875 L 192.933594 342.1875 L 146.585938 275.917969 Z M 146.59375 275.917969 " fill-opacity="1" fill-rule="nonzero"></path></g></svg><style>@media (prefers-color-scheme: light) { :root { filter: none; } }
@media (prefers-color-scheme: dark) { :root { filter: none; } }
</style></svg>